<mxfile host="app.diagrams.net" modified="2023-11-16T12:48:10.436Z" agent="Mozilla/5.0 (Windows NT 10.0; Win64; x64) AppleWebKit/537.36 (KHTML, like Gecko) Chrome/118.0.0.0 Safari/537.36" etag="kZ6mpIVZ3SZ09vmDDCNA" version="22.1.1" type="github">
  <diagram name="第 1 页" id="bAivZkSQPECU7tHoHEln">
    <mxGraphModel dx="1302" dy="685" grid="0" gridSize="10" guides="1" tooltips="1" connect="1" arrows="1" fold="1" page="1" pageScale="1" pageWidth="827" pageHeight="1169" background="none" math="0" shadow="1">
      <root>
        <mxCell id="0" />
        <mxCell id="1" parent="0" />
        <mxCell id="cc8yUeArfXGJb8f5VESH-2" value="" style="childLayout=tableLayout;recursiveResize=0;shadow=0;fillColor=#fff2cc;strokeColor=#d6b656;" vertex="1" parent="1">
          <mxGeometry x="170" y="387" width="80" height="60" as="geometry" />
        </mxCell>
        <mxCell id="cc8yUeArfXGJb8f5VESH-3" value="" style="shape=tableRow;horizontal=0;startSize=0;swimlaneHead=0;swimlaneBody=0;top=0;left=0;bottom=0;right=0;dropTarget=0;collapsible=0;recursiveResize=0;expand=0;fontStyle=0;fillColor=none;strokeColor=inherit;" vertex="1" parent="cc8yUeArfXGJb8f5VESH-2">
          <mxGeometry width="80" height="20" as="geometry" />
        </mxCell>
        <mxCell id="cc8yUeArfXGJb8f5VESH-4" value="" style="connectable=0;recursiveResize=0;strokeColor=inherit;fillColor=none;align=center;whiteSpace=wrap;html=1;" vertex="1" parent="cc8yUeArfXGJb8f5VESH-3">
          <mxGeometry width="26" height="20" as="geometry">
            <mxRectangle width="26" height="20" as="alternateBounds" />
          </mxGeometry>
        </mxCell>
        <mxCell id="cc8yUeArfXGJb8f5VESH-5" value="" style="connectable=0;recursiveResize=0;strokeColor=inherit;fillColor=none;align=center;whiteSpace=wrap;html=1;" vertex="1" parent="cc8yUeArfXGJb8f5VESH-3">
          <mxGeometry x="26" width="28" height="20" as="geometry">
            <mxRectangle width="28" height="20" as="alternateBounds" />
          </mxGeometry>
        </mxCell>
        <mxCell id="cc8yUeArfXGJb8f5VESH-6" value="" style="connectable=0;recursiveResize=0;strokeColor=inherit;fillColor=none;align=center;whiteSpace=wrap;html=1;" vertex="1" parent="cc8yUeArfXGJb8f5VESH-3">
          <mxGeometry x="54" width="26" height="20" as="geometry">
            <mxRectangle width="26" height="20" as="alternateBounds" />
          </mxGeometry>
        </mxCell>
        <mxCell id="cc8yUeArfXGJb8f5VESH-7" style="shape=tableRow;horizontal=0;startSize=0;swimlaneHead=0;swimlaneBody=0;top=0;left=0;bottom=0;right=0;dropTarget=0;collapsible=0;recursiveResize=0;expand=0;fontStyle=0;fillColor=none;strokeColor=inherit;" vertex="1" parent="cc8yUeArfXGJb8f5VESH-2">
          <mxGeometry y="20" width="80" height="20" as="geometry" />
        </mxCell>
        <mxCell id="cc8yUeArfXGJb8f5VESH-8" value="" style="connectable=0;recursiveResize=0;strokeColor=inherit;fillColor=none;align=center;whiteSpace=wrap;html=1;" vertex="1" parent="cc8yUeArfXGJb8f5VESH-7">
          <mxGeometry width="26" height="20" as="geometry">
            <mxRectangle width="26" height="20" as="alternateBounds" />
          </mxGeometry>
        </mxCell>
        <mxCell id="cc8yUeArfXGJb8f5VESH-9" value="" style="connectable=0;recursiveResize=0;strokeColor=inherit;fillColor=none;align=center;whiteSpace=wrap;html=1;" vertex="1" parent="cc8yUeArfXGJb8f5VESH-7">
          <mxGeometry x="26" width="28" height="20" as="geometry">
            <mxRectangle width="28" height="20" as="alternateBounds" />
          </mxGeometry>
        </mxCell>
        <mxCell id="cc8yUeArfXGJb8f5VESH-10" value="" style="connectable=0;recursiveResize=0;strokeColor=inherit;fillColor=none;align=center;whiteSpace=wrap;html=1;" vertex="1" parent="cc8yUeArfXGJb8f5VESH-7">
          <mxGeometry x="54" width="26" height="20" as="geometry">
            <mxRectangle width="26" height="20" as="alternateBounds" />
          </mxGeometry>
        </mxCell>
        <mxCell id="cc8yUeArfXGJb8f5VESH-11" style="shape=tableRow;horizontal=0;startSize=0;swimlaneHead=0;swimlaneBody=0;top=0;left=0;bottom=0;right=0;dropTarget=0;collapsible=0;recursiveResize=0;expand=0;fontStyle=0;fillColor=none;strokeColor=inherit;" vertex="1" parent="cc8yUeArfXGJb8f5VESH-2">
          <mxGeometry y="40" width="80" height="20" as="geometry" />
        </mxCell>
        <mxCell id="cc8yUeArfXGJb8f5VESH-12" value="" style="connectable=0;recursiveResize=0;strokeColor=inherit;fillColor=none;align=center;whiteSpace=wrap;html=1;" vertex="1" parent="cc8yUeArfXGJb8f5VESH-11">
          <mxGeometry width="26" height="20" as="geometry">
            <mxRectangle width="26" height="20" as="alternateBounds" />
          </mxGeometry>
        </mxCell>
        <mxCell id="cc8yUeArfXGJb8f5VESH-13" value="" style="connectable=0;recursiveResize=0;strokeColor=inherit;fillColor=none;align=center;whiteSpace=wrap;html=1;" vertex="1" parent="cc8yUeArfXGJb8f5VESH-11">
          <mxGeometry x="26" width="28" height="20" as="geometry">
            <mxRectangle width="28" height="20" as="alternateBounds" />
          </mxGeometry>
        </mxCell>
        <mxCell id="cc8yUeArfXGJb8f5VESH-14" value="" style="connectable=0;recursiveResize=0;strokeColor=inherit;fillColor=none;align=center;whiteSpace=wrap;html=1;" vertex="1" parent="cc8yUeArfXGJb8f5VESH-11">
          <mxGeometry x="54" width="26" height="20" as="geometry">
            <mxRectangle width="26" height="20" as="alternateBounds" />
          </mxGeometry>
        </mxCell>
        <mxCell id="cc8yUeArfXGJb8f5VESH-15" value="" style="childLayout=tableLayout;recursiveResize=0;shadow=0;fillColor=#d5e8d4;strokeColor=#82b366;" vertex="1" parent="1">
          <mxGeometry x="170" y="448" width="80" height="60" as="geometry" />
        </mxCell>
        <mxCell id="cc8yUeArfXGJb8f5VESH-16" value="" style="shape=tableRow;horizontal=0;startSize=0;swimlaneHead=0;swimlaneBody=0;top=0;left=0;bottom=0;right=0;dropTarget=0;collapsible=0;recursiveResize=0;expand=0;fontStyle=0;fillColor=none;strokeColor=inherit;" vertex="1" parent="cc8yUeArfXGJb8f5VESH-15">
          <mxGeometry width="80" height="20" as="geometry" />
        </mxCell>
        <mxCell id="cc8yUeArfXGJb8f5VESH-17" value="" style="connectable=0;recursiveResize=0;strokeColor=inherit;fillColor=none;align=center;whiteSpace=wrap;html=1;" vertex="1" parent="cc8yUeArfXGJb8f5VESH-16">
          <mxGeometry width="26" height="20" as="geometry">
            <mxRectangle width="26" height="20" as="alternateBounds" />
          </mxGeometry>
        </mxCell>
        <mxCell id="cc8yUeArfXGJb8f5VESH-18" value="" style="connectable=0;recursiveResize=0;strokeColor=inherit;fillColor=none;align=center;whiteSpace=wrap;html=1;" vertex="1" parent="cc8yUeArfXGJb8f5VESH-16">
          <mxGeometry x="26" width="28" height="20" as="geometry">
            <mxRectangle width="28" height="20" as="alternateBounds" />
          </mxGeometry>
        </mxCell>
        <mxCell id="cc8yUeArfXGJb8f5VESH-19" value="" style="connectable=0;recursiveResize=0;strokeColor=inherit;fillColor=none;align=center;whiteSpace=wrap;html=1;" vertex="1" parent="cc8yUeArfXGJb8f5VESH-16">
          <mxGeometry x="54" width="26" height="20" as="geometry">
            <mxRectangle width="26" height="20" as="alternateBounds" />
          </mxGeometry>
        </mxCell>
        <mxCell id="cc8yUeArfXGJb8f5VESH-20" style="shape=tableRow;horizontal=0;startSize=0;swimlaneHead=0;swimlaneBody=0;top=0;left=0;bottom=0;right=0;dropTarget=0;collapsible=0;recursiveResize=0;expand=0;fontStyle=0;fillColor=none;strokeColor=inherit;" vertex="1" parent="cc8yUeArfXGJb8f5VESH-15">
          <mxGeometry y="20" width="80" height="20" as="geometry" />
        </mxCell>
        <mxCell id="cc8yUeArfXGJb8f5VESH-21" value="" style="connectable=0;recursiveResize=0;strokeColor=inherit;fillColor=none;align=center;whiteSpace=wrap;html=1;" vertex="1" parent="cc8yUeArfXGJb8f5VESH-20">
          <mxGeometry width="26" height="20" as="geometry">
            <mxRectangle width="26" height="20" as="alternateBounds" />
          </mxGeometry>
        </mxCell>
        <mxCell id="cc8yUeArfXGJb8f5VESH-22" value="" style="connectable=0;recursiveResize=0;strokeColor=inherit;fillColor=none;align=center;whiteSpace=wrap;html=1;" vertex="1" parent="cc8yUeArfXGJb8f5VESH-20">
          <mxGeometry x="26" width="28" height="20" as="geometry">
            <mxRectangle width="28" height="20" as="alternateBounds" />
          </mxGeometry>
        </mxCell>
        <mxCell id="cc8yUeArfXGJb8f5VESH-23" value="" style="connectable=0;recursiveResize=0;strokeColor=inherit;fillColor=none;align=center;whiteSpace=wrap;html=1;" vertex="1" parent="cc8yUeArfXGJb8f5VESH-20">
          <mxGeometry x="54" width="26" height="20" as="geometry">
            <mxRectangle width="26" height="20" as="alternateBounds" />
          </mxGeometry>
        </mxCell>
        <mxCell id="cc8yUeArfXGJb8f5VESH-24" style="shape=tableRow;horizontal=0;startSize=0;swimlaneHead=0;swimlaneBody=0;top=0;left=0;bottom=0;right=0;dropTarget=0;collapsible=0;recursiveResize=0;expand=0;fontStyle=0;fillColor=none;strokeColor=inherit;" vertex="1" parent="cc8yUeArfXGJb8f5VESH-15">
          <mxGeometry y="40" width="80" height="20" as="geometry" />
        </mxCell>
        <mxCell id="cc8yUeArfXGJb8f5VESH-25" value="" style="connectable=0;recursiveResize=0;strokeColor=inherit;fillColor=none;align=center;whiteSpace=wrap;html=1;" vertex="1" parent="cc8yUeArfXGJb8f5VESH-24">
          <mxGeometry width="26" height="20" as="geometry">
            <mxRectangle width="26" height="20" as="alternateBounds" />
          </mxGeometry>
        </mxCell>
        <mxCell id="cc8yUeArfXGJb8f5VESH-26" value="" style="connectable=0;recursiveResize=0;strokeColor=inherit;fillColor=none;align=center;whiteSpace=wrap;html=1;" vertex="1" parent="cc8yUeArfXGJb8f5VESH-24">
          <mxGeometry x="26" width="28" height="20" as="geometry">
            <mxRectangle width="28" height="20" as="alternateBounds" />
          </mxGeometry>
        </mxCell>
        <mxCell id="cc8yUeArfXGJb8f5VESH-27" value="" style="connectable=0;recursiveResize=0;strokeColor=inherit;fillColor=none;align=center;whiteSpace=wrap;html=1;" vertex="1" parent="cc8yUeArfXGJb8f5VESH-24">
          <mxGeometry x="54" width="26" height="20" as="geometry">
            <mxRectangle width="26" height="20" as="alternateBounds" />
          </mxGeometry>
        </mxCell>
        <mxCell id="cc8yUeArfXGJb8f5VESH-28" value="" style="childLayout=tableLayout;recursiveResize=0;shadow=0;fillColor=#fff2cc;strokeColor=#d6b656;" vertex="1" parent="1">
          <mxGeometry x="170" y="531" width="80" height="60" as="geometry" />
        </mxCell>
        <mxCell id="cc8yUeArfXGJb8f5VESH-29" value="" style="shape=tableRow;horizontal=0;startSize=0;swimlaneHead=0;swimlaneBody=0;top=0;left=0;bottom=0;right=0;dropTarget=0;collapsible=0;recursiveResize=0;expand=0;fontStyle=0;fillColor=none;strokeColor=inherit;" vertex="1" parent="cc8yUeArfXGJb8f5VESH-28">
          <mxGeometry width="80" height="20" as="geometry" />
        </mxCell>
        <mxCell id="cc8yUeArfXGJb8f5VESH-30" value="" style="connectable=0;recursiveResize=0;strokeColor=#006EAF;fillColor=#1ba1e2;align=center;whiteSpace=wrap;html=1;fontColor=#ffffff;" vertex="1" parent="cc8yUeArfXGJb8f5VESH-29">
          <mxGeometry width="26" height="20" as="geometry">
            <mxRectangle width="26" height="20" as="alternateBounds" />
          </mxGeometry>
        </mxCell>
        <mxCell id="cc8yUeArfXGJb8f5VESH-31" value="" style="connectable=0;recursiveResize=0;strokeColor=#006EAF;fillColor=#1ba1e2;align=center;whiteSpace=wrap;html=1;fontColor=#ffffff;" vertex="1" parent="cc8yUeArfXGJb8f5VESH-29">
          <mxGeometry x="26" width="29" height="20" as="geometry">
            <mxRectangle width="29" height="20" as="alternateBounds" />
          </mxGeometry>
        </mxCell>
        <mxCell id="cc8yUeArfXGJb8f5VESH-32" value="" style="connectable=0;recursiveResize=0;strokeColor=#006EAF;fillColor=#1ba1e2;align=center;whiteSpace=wrap;html=1;fontColor=#ffffff;" vertex="1" parent="cc8yUeArfXGJb8f5VESH-29">
          <mxGeometry x="55" width="25" height="20" as="geometry">
            <mxRectangle width="25" height="20" as="alternateBounds" />
          </mxGeometry>
        </mxCell>
        <mxCell id="cc8yUeArfXGJb8f5VESH-33" style="shape=tableRow;horizontal=0;startSize=0;swimlaneHead=0;swimlaneBody=0;top=0;left=0;bottom=0;right=0;dropTarget=0;collapsible=0;recursiveResize=0;expand=0;fontStyle=0;fillColor=none;strokeColor=inherit;" vertex="1" parent="cc8yUeArfXGJb8f5VESH-28">
          <mxGeometry y="20" width="80" height="20" as="geometry" />
        </mxCell>
        <mxCell id="cc8yUeArfXGJb8f5VESH-34" value="" style="connectable=0;recursiveResize=0;strokeColor=#006EAF;fillColor=#1ba1e2;align=center;whiteSpace=wrap;html=1;fontColor=#ffffff;" vertex="1" parent="cc8yUeArfXGJb8f5VESH-33">
          <mxGeometry width="26" height="20" as="geometry">
            <mxRectangle width="26" height="20" as="alternateBounds" />
          </mxGeometry>
        </mxCell>
        <mxCell id="cc8yUeArfXGJb8f5VESH-35" value="" style="connectable=0;recursiveResize=0;strokeColor=#006EAF;fillColor=#1ba1e2;align=center;whiteSpace=wrap;html=1;fontColor=#ffffff;" vertex="1" parent="cc8yUeArfXGJb8f5VESH-33">
          <mxGeometry x="26" width="29" height="20" as="geometry">
            <mxRectangle width="29" height="20" as="alternateBounds" />
          </mxGeometry>
        </mxCell>
        <mxCell id="cc8yUeArfXGJb8f5VESH-36" value="" style="connectable=0;recursiveResize=0;strokeColor=#006EAF;fillColor=#1ba1e2;align=center;whiteSpace=wrap;html=1;fontColor=#ffffff;" vertex="1" parent="cc8yUeArfXGJb8f5VESH-33">
          <mxGeometry x="55" width="25" height="20" as="geometry">
            <mxRectangle width="25" height="20" as="alternateBounds" />
          </mxGeometry>
        </mxCell>
        <mxCell id="cc8yUeArfXGJb8f5VESH-37" style="shape=tableRow;horizontal=0;startSize=0;swimlaneHead=0;swimlaneBody=0;top=0;left=0;bottom=0;right=0;dropTarget=0;collapsible=0;recursiveResize=0;expand=0;fontStyle=0;fillColor=#f8cecc;strokeColor=#b85450;" vertex="1" parent="cc8yUeArfXGJb8f5VESH-28">
          <mxGeometry y="40" width="80" height="20" as="geometry" />
        </mxCell>
        <mxCell id="cc8yUeArfXGJb8f5VESH-38" value="" style="connectable=0;recursiveResize=0;strokeColor=#b85450;fillColor=#f8cecc;align=center;whiteSpace=wrap;html=1;" vertex="1" parent="cc8yUeArfXGJb8f5VESH-37">
          <mxGeometry width="26" height="20" as="geometry">
            <mxRectangle width="26" height="20" as="alternateBounds" />
          </mxGeometry>
        </mxCell>
        <mxCell id="cc8yUeArfXGJb8f5VESH-39" value="" style="connectable=0;recursiveResize=0;strokeColor=#b85450;fillColor=#f8cecc;align=center;whiteSpace=wrap;html=1;" vertex="1" parent="cc8yUeArfXGJb8f5VESH-37">
          <mxGeometry x="26" width="29" height="20" as="geometry">
            <mxRectangle width="29" height="20" as="alternateBounds" />
          </mxGeometry>
        </mxCell>
        <mxCell id="cc8yUeArfXGJb8f5VESH-40" value="" style="connectable=0;recursiveResize=0;strokeColor=inherit;fillColor=none;align=center;whiteSpace=wrap;html=1;" vertex="1" parent="cc8yUeArfXGJb8f5VESH-37">
          <mxGeometry x="55" width="25" height="20" as="geometry">
            <mxRectangle width="25" height="20" as="alternateBounds" />
          </mxGeometry>
        </mxCell>
        <mxCell id="cc8yUeArfXGJb8f5VESH-41" value="" style="childLayout=tableLayout;recursiveResize=0;shadow=0;fillColor=#f8cecc;strokeColor=#b85450;" vertex="1" parent="1">
          <mxGeometry x="170" y="592" width="80" height="60" as="geometry" />
        </mxCell>
        <mxCell id="cc8yUeArfXGJb8f5VESH-42" value="" style="shape=tableRow;horizontal=0;startSize=0;swimlaneHead=0;swimlaneBody=0;top=0;left=0;bottom=0;right=0;dropTarget=0;collapsible=0;recursiveResize=0;expand=0;fontStyle=0;fillColor=none;strokeColor=inherit;" vertex="1" parent="cc8yUeArfXGJb8f5VESH-41">
          <mxGeometry width="80" height="20" as="geometry" />
        </mxCell>
        <mxCell id="cc8yUeArfXGJb8f5VESH-43" value="" style="connectable=0;recursiveResize=0;strokeColor=inherit;fillColor=none;align=center;whiteSpace=wrap;html=1;" vertex="1" parent="cc8yUeArfXGJb8f5VESH-42">
          <mxGeometry width="26" height="20" as="geometry">
            <mxRectangle width="26" height="20" as="alternateBounds" />
          </mxGeometry>
        </mxCell>
        <mxCell id="cc8yUeArfXGJb8f5VESH-44" value="" style="connectable=0;recursiveResize=0;strokeColor=inherit;fillColor=none;align=center;whiteSpace=wrap;html=1;" vertex="1" parent="cc8yUeArfXGJb8f5VESH-42">
          <mxGeometry x="26" width="28" height="20" as="geometry">
            <mxRectangle width="28" height="20" as="alternateBounds" />
          </mxGeometry>
        </mxCell>
        <mxCell id="cc8yUeArfXGJb8f5VESH-45" value="" style="connectable=0;recursiveResize=0;strokeColor=inherit;fillColor=none;align=center;whiteSpace=wrap;html=1;" vertex="1" parent="cc8yUeArfXGJb8f5VESH-42">
          <mxGeometry x="54" width="26" height="20" as="geometry">
            <mxRectangle width="26" height="20" as="alternateBounds" />
          </mxGeometry>
        </mxCell>
        <mxCell id="cc8yUeArfXGJb8f5VESH-46" style="shape=tableRow;horizontal=0;startSize=0;swimlaneHead=0;swimlaneBody=0;top=0;left=0;bottom=0;right=0;dropTarget=0;collapsible=0;recursiveResize=0;expand=0;fontStyle=0;fillColor=none;strokeColor=inherit;" vertex="1" parent="cc8yUeArfXGJb8f5VESH-41">
          <mxGeometry y="20" width="80" height="20" as="geometry" />
        </mxCell>
        <mxCell id="cc8yUeArfXGJb8f5VESH-47" value="" style="connectable=0;recursiveResize=0;strokeColor=inherit;fillColor=none;align=center;whiteSpace=wrap;html=1;" vertex="1" parent="cc8yUeArfXGJb8f5VESH-46">
          <mxGeometry width="26" height="20" as="geometry">
            <mxRectangle width="26" height="20" as="alternateBounds" />
          </mxGeometry>
        </mxCell>
        <mxCell id="cc8yUeArfXGJb8f5VESH-48" value="" style="connectable=0;recursiveResize=0;strokeColor=inherit;fillColor=none;align=center;whiteSpace=wrap;html=1;" vertex="1" parent="cc8yUeArfXGJb8f5VESH-46">
          <mxGeometry x="26" width="28" height="20" as="geometry">
            <mxRectangle width="28" height="20" as="alternateBounds" />
          </mxGeometry>
        </mxCell>
        <mxCell id="cc8yUeArfXGJb8f5VESH-49" value="" style="connectable=0;recursiveResize=0;strokeColor=inherit;fillColor=none;align=center;whiteSpace=wrap;html=1;" vertex="1" parent="cc8yUeArfXGJb8f5VESH-46">
          <mxGeometry x="54" width="26" height="20" as="geometry">
            <mxRectangle width="26" height="20" as="alternateBounds" />
          </mxGeometry>
        </mxCell>
        <mxCell id="cc8yUeArfXGJb8f5VESH-50" style="shape=tableRow;horizontal=0;startSize=0;swimlaneHead=0;swimlaneBody=0;top=0;left=0;bottom=0;right=0;dropTarget=0;collapsible=0;recursiveResize=0;expand=0;fontStyle=0;fillColor=none;strokeColor=inherit;" vertex="1" parent="cc8yUeArfXGJb8f5VESH-41">
          <mxGeometry y="40" width="80" height="20" as="geometry" />
        </mxCell>
        <mxCell id="cc8yUeArfXGJb8f5VESH-51" value="" style="connectable=0;recursiveResize=0;strokeColor=inherit;fillColor=none;align=center;whiteSpace=wrap;html=1;" vertex="1" parent="cc8yUeArfXGJb8f5VESH-50">
          <mxGeometry width="26" height="20" as="geometry">
            <mxRectangle width="26" height="20" as="alternateBounds" />
          </mxGeometry>
        </mxCell>
        <mxCell id="cc8yUeArfXGJb8f5VESH-52" value="" style="connectable=0;recursiveResize=0;strokeColor=inherit;fillColor=none;align=center;whiteSpace=wrap;html=1;" vertex="1" parent="cc8yUeArfXGJb8f5VESH-50">
          <mxGeometry x="26" width="28" height="20" as="geometry">
            <mxRectangle width="28" height="20" as="alternateBounds" />
          </mxGeometry>
        </mxCell>
        <mxCell id="cc8yUeArfXGJb8f5VESH-53" value="" style="connectable=0;recursiveResize=0;strokeColor=inherit;fillColor=none;align=center;whiteSpace=wrap;html=1;" vertex="1" parent="cc8yUeArfXGJb8f5VESH-50">
          <mxGeometry x="54" width="26" height="20" as="geometry">
            <mxRectangle width="26" height="20" as="alternateBounds" />
          </mxGeometry>
        </mxCell>
        <mxCell id="cc8yUeArfXGJb8f5VESH-55" value="&lt;font style=&quot;font-size: 18px;&quot;&gt;S1&lt;/font&gt;" style="text;strokeColor=none;fillColor=none;html=1;fontSize=24;fontStyle=1;verticalAlign=middle;align=center;" vertex="1" parent="1">
          <mxGeometry x="160" y="397" width="100" height="40" as="geometry" />
        </mxCell>
        <mxCell id="cc8yUeArfXGJb8f5VESH-72" style="edgeStyle=orthogonalEdgeStyle;rounded=0;orthogonalLoop=1;jettySize=auto;html=1;" edge="1" parent="1">
          <mxGeometry relative="1" as="geometry">
            <mxPoint x="290" y="454" as="targetPoint" />
            <mxPoint x="250" y="454" as="sourcePoint" />
            <Array as="points">
              <mxPoint x="270" y="454" />
              <mxPoint x="270" y="454" />
            </Array>
          </mxGeometry>
        </mxCell>
        <mxCell id="cc8yUeArfXGJb8f5VESH-56" value="&lt;font style=&quot;font-size: 18px;&quot;&gt;S2&lt;/font&gt;" style="text;strokeColor=none;fillColor=none;html=1;fontSize=24;fontStyle=1;verticalAlign=middle;align=center;" vertex="1" parent="1">
          <mxGeometry x="160" y="460" width="100" height="38" as="geometry" />
        </mxCell>
        <mxCell id="cc8yUeArfXGJb8f5VESH-57" value="&lt;font style=&quot;font-size: 18px;&quot;&gt;Sys&lt;/font&gt;" style="text;strokeColor=none;fillColor=none;html=1;fontSize=24;fontStyle=1;verticalAlign=middle;align=center;" vertex="1" parent="1">
          <mxGeometry x="160" y="540" width="100" height="40" as="geometry" />
        </mxCell>
        <mxCell id="cc8yUeArfXGJb8f5VESH-58" value="&lt;font style=&quot;font-size: 18px;&quot;&gt;Dia&lt;/font&gt;" style="text;strokeColor=none;fillColor=none;html=1;fontSize=24;fontStyle=1;verticalAlign=middle;align=center;" vertex="1" parent="1">
          <mxGeometry x="160" y="602" width="100" height="40" as="geometry" />
        </mxCell>
        <mxCell id="cc8yUeArfXGJb8f5VESH-59" value="f" style="text;strokeColor=none;fillColor=none;html=1;fontSize=24;fontStyle=1;verticalAlign=middle;align=center;" vertex="1" parent="1">
          <mxGeometry x="160" y="347" width="100" height="40" as="geometry" />
        </mxCell>
        <mxCell id="cc8yUeArfXGJb8f5VESH-63" value="" style="edgeStyle=elbowEdgeStyle;elbow=horizontal;endArrow=classic;html=1;curved=0;rounded=0;endSize=8;startSize=8;entryX=-0.04;entryY=-0.3;entryDx=0;entryDy=0;entryPerimeter=0;exitX=0;exitY=0.65;exitDx=0;exitDy=0;exitPerimeter=0;" edge="1" parent="1" source="cc8yUeArfXGJb8f5VESH-11">
          <mxGeometry width="50" height="50" relative="1" as="geometry">
            <mxPoint x="165" y="440" as="sourcePoint" />
            <mxPoint x="171.79999999999995" y="462" as="targetPoint" />
            <Array as="points">
              <mxPoint x="145" y="490" />
            </Array>
          </mxGeometry>
        </mxCell>
        <mxCell id="cc8yUeArfXGJb8f5VESH-64" value="&lt;font style=&quot;font-size: 18px;&quot;&gt;+t_Sys&lt;/font&gt;" style="text;strokeColor=none;fillColor=none;html=1;fontSize=24;fontStyle=1;verticalAlign=middle;align=center;" vertex="1" parent="1">
          <mxGeometry x="60" y="430" width="100" height="40" as="geometry" />
        </mxCell>
        <mxCell id="cc8yUeArfXGJb8f5VESH-66" value="" style="edgeStyle=elbowEdgeStyle;elbow=horizontal;endArrow=classic;html=1;curved=0;rounded=0;endSize=8;startSize=8;entryX=-0.04;entryY=-0.3;entryDx=0;entryDy=0;entryPerimeter=0;exitX=0;exitY=0.65;exitDx=0;exitDy=0;exitPerimeter=0;" edge="1" parent="1">
          <mxGeometry width="50" height="50" relative="1" as="geometry">
            <mxPoint x="168.2" y="563" as="sourcePoint" />
            <mxPoint x="169.99999999999994" y="585" as="targetPoint" />
            <Array as="points">
              <mxPoint x="143.2" y="613" />
            </Array>
          </mxGeometry>
        </mxCell>
        <mxCell id="cc8yUeArfXGJb8f5VESH-67" value="&lt;font style=&quot;font-size: 18px;&quot;&gt;+t_S2&lt;/font&gt;" style="text;strokeColor=none;fillColor=none;html=1;fontSize=24;fontStyle=1;verticalAlign=middle;align=center;" vertex="1" parent="1">
          <mxGeometry x="60" y="552" width="100" height="40" as="geometry" />
        </mxCell>
        <mxCell id="cc8yUeArfXGJb8f5VESH-74" style="edgeStyle=orthogonalEdgeStyle;rounded=0;orthogonalLoop=1;jettySize=auto;html=1;" edge="1" parent="1">
          <mxGeometry relative="1" as="geometry">
            <mxPoint x="290" y="591" as="targetPoint" />
            <mxPoint x="250" y="591" as="sourcePoint" />
            <Array as="points">
              <mxPoint x="250" y="591" />
            </Array>
          </mxGeometry>
        </mxCell>
        <mxCell id="cc8yUeArfXGJb8f5VESH-75" value="" style="childLayout=tableLayout;recursiveResize=0;shadow=0;fillColor=#cce5ff;strokeColor=#36393d;" vertex="1" parent="1">
          <mxGeometry x="390" y="420" width="80" height="60" as="geometry" />
        </mxCell>
        <mxCell id="cc8yUeArfXGJb8f5VESH-76" value="" style="shape=tableRow;horizontal=0;startSize=0;swimlaneHead=0;swimlaneBody=0;top=0;left=0;bottom=0;right=0;dropTarget=0;collapsible=0;recursiveResize=0;expand=0;fontStyle=0;fillColor=#cce5ff;strokeColor=#36393d;" vertex="1" parent="cc8yUeArfXGJb8f5VESH-75">
          <mxGeometry width="80" height="20" as="geometry" />
        </mxCell>
        <mxCell id="cc8yUeArfXGJb8f5VESH-77" value="" style="connectable=0;recursiveResize=0;strokeColor=#36393d;fillColor=#cce5ff;align=center;whiteSpace=wrap;html=1;" vertex="1" parent="cc8yUeArfXGJb8f5VESH-76">
          <mxGeometry width="26" height="20" as="geometry">
            <mxRectangle width="26" height="20" as="alternateBounds" />
          </mxGeometry>
        </mxCell>
        <mxCell id="cc8yUeArfXGJb8f5VESH-78" value="" style="connectable=0;recursiveResize=0;strokeColor=#36393d;fillColor=#cce5ff;align=center;whiteSpace=wrap;html=1;" vertex="1" parent="cc8yUeArfXGJb8f5VESH-76">
          <mxGeometry x="26" width="28" height="20" as="geometry">
            <mxRectangle width="28" height="20" as="alternateBounds" />
          </mxGeometry>
        </mxCell>
        <mxCell id="cc8yUeArfXGJb8f5VESH-79" value="" style="connectable=0;recursiveResize=0;strokeColor=#36393d;fillColor=#cce5ff;align=center;whiteSpace=wrap;html=1;" vertex="1" parent="cc8yUeArfXGJb8f5VESH-76">
          <mxGeometry x="54" width="26" height="20" as="geometry">
            <mxRectangle width="26" height="20" as="alternateBounds" />
          </mxGeometry>
        </mxCell>
        <mxCell id="cc8yUeArfXGJb8f5VESH-80" style="shape=tableRow;horizontal=0;startSize=0;swimlaneHead=0;swimlaneBody=0;top=0;left=0;bottom=0;right=0;dropTarget=0;collapsible=0;recursiveResize=0;expand=0;fontStyle=0;fillColor=#cce5ff;strokeColor=#36393d;" vertex="1" parent="cc8yUeArfXGJb8f5VESH-75">
          <mxGeometry y="20" width="80" height="20" as="geometry" />
        </mxCell>
        <mxCell id="cc8yUeArfXGJb8f5VESH-81" value="" style="connectable=0;recursiveResize=0;strokeColor=#36393d;fillColor=#cce5ff;align=center;whiteSpace=wrap;html=1;" vertex="1" parent="cc8yUeArfXGJb8f5VESH-80">
          <mxGeometry width="26" height="20" as="geometry">
            <mxRectangle width="26" height="20" as="alternateBounds" />
          </mxGeometry>
        </mxCell>
        <mxCell id="cc8yUeArfXGJb8f5VESH-82" value="" style="connectable=0;recursiveResize=0;strokeColor=#36393d;fillColor=#cce5ff;align=center;whiteSpace=wrap;html=1;" vertex="1" parent="cc8yUeArfXGJb8f5VESH-80">
          <mxGeometry x="26" width="28" height="20" as="geometry">
            <mxRectangle width="28" height="20" as="alternateBounds" />
          </mxGeometry>
        </mxCell>
        <mxCell id="cc8yUeArfXGJb8f5VESH-83" value="" style="connectable=0;recursiveResize=0;strokeColor=#36393d;fillColor=#cce5ff;align=center;whiteSpace=wrap;html=1;" vertex="1" parent="cc8yUeArfXGJb8f5VESH-80">
          <mxGeometry x="54" width="26" height="20" as="geometry">
            <mxRectangle width="26" height="20" as="alternateBounds" />
          </mxGeometry>
        </mxCell>
        <mxCell id="cc8yUeArfXGJb8f5VESH-84" style="shape=tableRow;horizontal=0;startSize=0;swimlaneHead=0;swimlaneBody=0;top=0;left=0;bottom=0;right=0;dropTarget=0;collapsible=0;recursiveResize=0;expand=0;fontStyle=0;fillColor=#cce5ff;strokeColor=#36393d;" vertex="1" parent="cc8yUeArfXGJb8f5VESH-75">
          <mxGeometry y="40" width="80" height="20" as="geometry" />
        </mxCell>
        <mxCell id="cc8yUeArfXGJb8f5VESH-85" value="" style="connectable=0;recursiveResize=0;strokeColor=#36393d;fillColor=#cce5ff;align=center;whiteSpace=wrap;html=1;" vertex="1" parent="cc8yUeArfXGJb8f5VESH-84">
          <mxGeometry width="26" height="20" as="geometry">
            <mxRectangle width="26" height="20" as="alternateBounds" />
          </mxGeometry>
        </mxCell>
        <mxCell id="cc8yUeArfXGJb8f5VESH-86" value="" style="connectable=0;recursiveResize=0;strokeColor=#36393d;fillColor=#cce5ff;align=center;whiteSpace=wrap;html=1;" vertex="1" parent="cc8yUeArfXGJb8f5VESH-84">
          <mxGeometry x="26" width="28" height="20" as="geometry">
            <mxRectangle width="28" height="20" as="alternateBounds" />
          </mxGeometry>
        </mxCell>
        <mxCell id="cc8yUeArfXGJb8f5VESH-87" value="" style="connectable=0;recursiveResize=0;strokeColor=#36393d;fillColor=#cce5ff;align=center;whiteSpace=wrap;html=1;" vertex="1" parent="cc8yUeArfXGJb8f5VESH-84">
          <mxGeometry x="54" width="26" height="20" as="geometry">
            <mxRectangle width="26" height="20" as="alternateBounds" />
          </mxGeometry>
        </mxCell>
        <mxCell id="cc8yUeArfXGJb8f5VESH-88" value="LSTM" style="swimlane;horizontal=0;whiteSpace=wrap;html=1;fillColor=#f9f7ed;strokeColor=#36393d;" vertex="1" parent="1">
          <mxGeometry x="290" y="397" width="20" height="107" as="geometry">
            <mxRectangle x="300" y="397" width="40" height="60" as="alternateBounds" />
          </mxGeometry>
        </mxCell>
        <mxCell id="cc8yUeArfXGJb8f5VESH-90" value="LSTM" style="swimlane;horizontal=0;whiteSpace=wrap;html=1;fillColor=#f9f7ed;strokeColor=#36393d;" vertex="1" parent="1">
          <mxGeometry x="290" y="540" width="20" height="107" as="geometry">
            <mxRectangle x="300" y="397" width="40" height="60" as="alternateBounds" />
          </mxGeometry>
        </mxCell>
        <mxCell id="cc8yUeArfXGJb8f5VESH-91" value="Resnet" style="swimlane;horizontal=0;whiteSpace=wrap;html=1;fillColor=#f9f7ed;strokeColor=#36393d;" vertex="1" parent="1">
          <mxGeometry x="340" y="396.5" width="20" height="107" as="geometry">
            <mxRectangle x="300" y="397" width="40" height="60" as="alternateBounds" />
          </mxGeometry>
        </mxCell>
        <mxCell id="cc8yUeArfXGJb8f5VESH-92" value="Resnet" style="swimlane;horizontal=0;whiteSpace=wrap;html=1;fillColor=#f9f7ed;strokeColor=#36393d;" vertex="1" parent="1">
          <mxGeometry x="340" y="540" width="20" height="107" as="geometry">
            <mxRectangle x="300" y="397" width="40" height="60" as="alternateBounds" />
          </mxGeometry>
        </mxCell>
        <mxCell id="cc8yUeArfXGJb8f5VESH-95" style="edgeStyle=orthogonalEdgeStyle;rounded=0;orthogonalLoop=1;jettySize=auto;html=1;" edge="1" parent="1">
          <mxGeometry relative="1" as="geometry">
            <mxPoint x="340" y="455" as="targetPoint" />
            <mxPoint x="310" y="455" as="sourcePoint" />
            <Array as="points">
              <mxPoint x="330" y="455" />
              <mxPoint x="330" y="455" />
            </Array>
          </mxGeometry>
        </mxCell>
        <mxCell id="cc8yUeArfXGJb8f5VESH-96" style="edgeStyle=orthogonalEdgeStyle;rounded=0;orthogonalLoop=1;jettySize=auto;html=1;" edge="1" parent="1">
          <mxGeometry relative="1" as="geometry">
            <mxPoint x="342" y="590" as="targetPoint" />
            <mxPoint x="312" y="590" as="sourcePoint" />
            <Array as="points">
              <mxPoint x="332" y="590" />
              <mxPoint x="332" y="590" />
            </Array>
          </mxGeometry>
        </mxCell>
        <mxCell id="cc8yUeArfXGJb8f5VESH-98" value="" style="childLayout=tableLayout;recursiveResize=0;shadow=0;fillColor=#cce5ff;strokeColor=#36393d;" vertex="1" parent="1">
          <mxGeometry x="400" y="430" width="80" height="60" as="geometry" />
        </mxCell>
        <mxCell id="cc8yUeArfXGJb8f5VESH-99" value="" style="shape=tableRow;horizontal=0;startSize=0;swimlaneHead=0;swimlaneBody=0;top=0;left=0;bottom=0;right=0;dropTarget=0;collapsible=0;recursiveResize=0;expand=0;fontStyle=0;fillColor=#cce5ff;strokeColor=#36393d;" vertex="1" parent="cc8yUeArfXGJb8f5VESH-98">
          <mxGeometry width="80" height="20" as="geometry" />
        </mxCell>
        <mxCell id="cc8yUeArfXGJb8f5VESH-100" value="" style="connectable=0;recursiveResize=0;strokeColor=#36393d;fillColor=#cce5ff;align=center;whiteSpace=wrap;html=1;" vertex="1" parent="cc8yUeArfXGJb8f5VESH-99">
          <mxGeometry width="26" height="20" as="geometry">
            <mxRectangle width="26" height="20" as="alternateBounds" />
          </mxGeometry>
        </mxCell>
        <mxCell id="cc8yUeArfXGJb8f5VESH-101" value="" style="connectable=0;recursiveResize=0;strokeColor=#36393d;fillColor=#cce5ff;align=center;whiteSpace=wrap;html=1;" vertex="1" parent="cc8yUeArfXGJb8f5VESH-99">
          <mxGeometry x="26" width="28" height="20" as="geometry">
            <mxRectangle width="28" height="20" as="alternateBounds" />
          </mxGeometry>
        </mxCell>
        <mxCell id="cc8yUeArfXGJb8f5VESH-102" value="" style="connectable=0;recursiveResize=0;strokeColor=#36393d;fillColor=#cce5ff;align=center;whiteSpace=wrap;html=1;" vertex="1" parent="cc8yUeArfXGJb8f5VESH-99">
          <mxGeometry x="54" width="26" height="20" as="geometry">
            <mxRectangle width="26" height="20" as="alternateBounds" />
          </mxGeometry>
        </mxCell>
        <mxCell id="cc8yUeArfXGJb8f5VESH-103" style="shape=tableRow;horizontal=0;startSize=0;swimlaneHead=0;swimlaneBody=0;top=0;left=0;bottom=0;right=0;dropTarget=0;collapsible=0;recursiveResize=0;expand=0;fontStyle=0;fillColor=#cce5ff;strokeColor=#36393d;" vertex="1" parent="cc8yUeArfXGJb8f5VESH-98">
          <mxGeometry y="20" width="80" height="20" as="geometry" />
        </mxCell>
        <mxCell id="cc8yUeArfXGJb8f5VESH-104" value="" style="connectable=0;recursiveResize=0;strokeColor=#36393d;fillColor=#cce5ff;align=center;whiteSpace=wrap;html=1;" vertex="1" parent="cc8yUeArfXGJb8f5VESH-103">
          <mxGeometry width="26" height="20" as="geometry">
            <mxRectangle width="26" height="20" as="alternateBounds" />
          </mxGeometry>
        </mxCell>
        <mxCell id="cc8yUeArfXGJb8f5VESH-105" value="" style="connectable=0;recursiveResize=0;strokeColor=#36393d;fillColor=#cce5ff;align=center;whiteSpace=wrap;html=1;" vertex="1" parent="cc8yUeArfXGJb8f5VESH-103">
          <mxGeometry x="26" width="28" height="20" as="geometry">
            <mxRectangle width="28" height="20" as="alternateBounds" />
          </mxGeometry>
        </mxCell>
        <mxCell id="cc8yUeArfXGJb8f5VESH-106" value="" style="connectable=0;recursiveResize=0;strokeColor=#36393d;fillColor=#cce5ff;align=center;whiteSpace=wrap;html=1;" vertex="1" parent="cc8yUeArfXGJb8f5VESH-103">
          <mxGeometry x="54" width="26" height="20" as="geometry">
            <mxRectangle width="26" height="20" as="alternateBounds" />
          </mxGeometry>
        </mxCell>
        <mxCell id="cc8yUeArfXGJb8f5VESH-107" style="shape=tableRow;horizontal=0;startSize=0;swimlaneHead=0;swimlaneBody=0;top=0;left=0;bottom=0;right=0;dropTarget=0;collapsible=0;recursiveResize=0;expand=0;fontStyle=0;fillColor=#cce5ff;strokeColor=#36393d;" vertex="1" parent="cc8yUeArfXGJb8f5VESH-98">
          <mxGeometry y="40" width="80" height="20" as="geometry" />
        </mxCell>
        <mxCell id="cc8yUeArfXGJb8f5VESH-108" value="" style="connectable=0;recursiveResize=0;strokeColor=#36393d;fillColor=#cce5ff;align=center;whiteSpace=wrap;html=1;" vertex="1" parent="cc8yUeArfXGJb8f5VESH-107">
          <mxGeometry width="26" height="20" as="geometry">
            <mxRectangle width="26" height="20" as="alternateBounds" />
          </mxGeometry>
        </mxCell>
        <mxCell id="cc8yUeArfXGJb8f5VESH-109" value="" style="connectable=0;recursiveResize=0;strokeColor=#36393d;fillColor=#cce5ff;align=center;whiteSpace=wrap;html=1;" vertex="1" parent="cc8yUeArfXGJb8f5VESH-107">
          <mxGeometry x="26" width="28" height="20" as="geometry">
            <mxRectangle width="28" height="20" as="alternateBounds" />
          </mxGeometry>
        </mxCell>
        <mxCell id="cc8yUeArfXGJb8f5VESH-110" value="" style="connectable=0;recursiveResize=0;strokeColor=#36393d;fillColor=#cce5ff;align=center;whiteSpace=wrap;html=1;" vertex="1" parent="cc8yUeArfXGJb8f5VESH-107">
          <mxGeometry x="54" width="26" height="20" as="geometry">
            <mxRectangle width="26" height="20" as="alternateBounds" />
          </mxGeometry>
        </mxCell>
        <mxCell id="cc8yUeArfXGJb8f5VESH-111" style="edgeStyle=orthogonalEdgeStyle;rounded=0;orthogonalLoop=1;jettySize=auto;html=1;" edge="1" parent="1">
          <mxGeometry relative="1" as="geometry">
            <mxPoint x="391" y="456" as="targetPoint" />
            <mxPoint x="361" y="456" as="sourcePoint" />
            <Array as="points">
              <mxPoint x="381" y="456" />
              <mxPoint x="381" y="456" />
            </Array>
          </mxGeometry>
        </mxCell>
        <mxCell id="cc8yUeArfXGJb8f5VESH-138" value="" style="childLayout=tableLayout;recursiveResize=0;shadow=0;fillColor=#1ba1e2;strokeColor=#006EAF;fontColor=#ffffff;" vertex="1" parent="1">
          <mxGeometry x="390" y="550" width="80" height="60" as="geometry" />
        </mxCell>
        <mxCell id="cc8yUeArfXGJb8f5VESH-139" value="" style="shape=tableRow;horizontal=0;startSize=0;swimlaneHead=0;swimlaneBody=0;top=0;left=0;bottom=0;right=0;dropTarget=0;collapsible=0;recursiveResize=0;expand=0;fontStyle=0;fillColor=#1ba1e2;strokeColor=#006EAF;fontColor=#ffffff;" vertex="1" parent="cc8yUeArfXGJb8f5VESH-138">
          <mxGeometry width="80" height="20" as="geometry" />
        </mxCell>
        <mxCell id="cc8yUeArfXGJb8f5VESH-140" value="" style="connectable=0;recursiveResize=0;strokeColor=#006EAF;fillColor=#1ba1e2;align=center;whiteSpace=wrap;html=1;fontColor=#ffffff;" vertex="1" parent="cc8yUeArfXGJb8f5VESH-139">
          <mxGeometry width="26" height="20" as="geometry">
            <mxRectangle width="26" height="20" as="alternateBounds" />
          </mxGeometry>
        </mxCell>
        <mxCell id="cc8yUeArfXGJb8f5VESH-141" value="" style="connectable=0;recursiveResize=0;strokeColor=#006EAF;fillColor=#1ba1e2;align=center;whiteSpace=wrap;html=1;fontColor=#ffffff;" vertex="1" parent="cc8yUeArfXGJb8f5VESH-139">
          <mxGeometry x="26" width="28" height="20" as="geometry">
            <mxRectangle width="28" height="20" as="alternateBounds" />
          </mxGeometry>
        </mxCell>
        <mxCell id="cc8yUeArfXGJb8f5VESH-142" value="" style="connectable=0;recursiveResize=0;strokeColor=#006EAF;fillColor=#1ba1e2;align=center;whiteSpace=wrap;html=1;fontColor=#ffffff;" vertex="1" parent="cc8yUeArfXGJb8f5VESH-139">
          <mxGeometry x="54" width="26" height="20" as="geometry">
            <mxRectangle width="26" height="20" as="alternateBounds" />
          </mxGeometry>
        </mxCell>
        <mxCell id="cc8yUeArfXGJb8f5VESH-143" style="shape=tableRow;horizontal=0;startSize=0;swimlaneHead=0;swimlaneBody=0;top=0;left=0;bottom=0;right=0;dropTarget=0;collapsible=0;recursiveResize=0;expand=0;fontStyle=0;fillColor=#1ba1e2;strokeColor=#006EAF;fontColor=#ffffff;" vertex="1" parent="cc8yUeArfXGJb8f5VESH-138">
          <mxGeometry y="20" width="80" height="20" as="geometry" />
        </mxCell>
        <mxCell id="cc8yUeArfXGJb8f5VESH-144" value="" style="connectable=0;recursiveResize=0;strokeColor=#006EAF;fillColor=#1ba1e2;align=center;whiteSpace=wrap;html=1;fontColor=#ffffff;" vertex="1" parent="cc8yUeArfXGJb8f5VESH-143">
          <mxGeometry width="26" height="20" as="geometry">
            <mxRectangle width="26" height="20" as="alternateBounds" />
          </mxGeometry>
        </mxCell>
        <mxCell id="cc8yUeArfXGJb8f5VESH-145" value="" style="connectable=0;recursiveResize=0;strokeColor=#006EAF;fillColor=#1ba1e2;align=center;whiteSpace=wrap;html=1;fontColor=#ffffff;" vertex="1" parent="cc8yUeArfXGJb8f5VESH-143">
          <mxGeometry x="26" width="28" height="20" as="geometry">
            <mxRectangle width="28" height="20" as="alternateBounds" />
          </mxGeometry>
        </mxCell>
        <mxCell id="cc8yUeArfXGJb8f5VESH-146" value="" style="connectable=0;recursiveResize=0;strokeColor=#006EAF;fillColor=#1ba1e2;align=center;whiteSpace=wrap;html=1;fontColor=#ffffff;" vertex="1" parent="cc8yUeArfXGJb8f5VESH-143">
          <mxGeometry x="54" width="26" height="20" as="geometry">
            <mxRectangle width="26" height="20" as="alternateBounds" />
          </mxGeometry>
        </mxCell>
        <mxCell id="cc8yUeArfXGJb8f5VESH-147" style="shape=tableRow;horizontal=0;startSize=0;swimlaneHead=0;swimlaneBody=0;top=0;left=0;bottom=0;right=0;dropTarget=0;collapsible=0;recursiveResize=0;expand=0;fontStyle=0;fillColor=#1ba1e2;strokeColor=#006EAF;fontColor=#ffffff;" vertex="1" parent="cc8yUeArfXGJb8f5VESH-138">
          <mxGeometry y="40" width="80" height="20" as="geometry" />
        </mxCell>
        <mxCell id="cc8yUeArfXGJb8f5VESH-148" value="" style="connectable=0;recursiveResize=0;strokeColor=#006EAF;fillColor=#1ba1e2;align=center;whiteSpace=wrap;html=1;fontColor=#ffffff;" vertex="1" parent="cc8yUeArfXGJb8f5VESH-147">
          <mxGeometry width="26" height="20" as="geometry">
            <mxRectangle width="26" height="20" as="alternateBounds" />
          </mxGeometry>
        </mxCell>
        <mxCell id="cc8yUeArfXGJb8f5VESH-149" value="" style="connectable=0;recursiveResize=0;strokeColor=#006EAF;fillColor=#1ba1e2;align=center;whiteSpace=wrap;html=1;fontColor=#ffffff;" vertex="1" parent="cc8yUeArfXGJb8f5VESH-147">
          <mxGeometry x="26" width="28" height="20" as="geometry">
            <mxRectangle width="28" height="20" as="alternateBounds" />
          </mxGeometry>
        </mxCell>
        <mxCell id="cc8yUeArfXGJb8f5VESH-150" value="" style="connectable=0;recursiveResize=0;strokeColor=#006EAF;fillColor=#1ba1e2;align=center;whiteSpace=wrap;html=1;fontColor=#ffffff;" vertex="1" parent="cc8yUeArfXGJb8f5VESH-147">
          <mxGeometry x="54" width="26" height="20" as="geometry">
            <mxRectangle width="26" height="20" as="alternateBounds" />
          </mxGeometry>
        </mxCell>
        <mxCell id="cc8yUeArfXGJb8f5VESH-151" value="" style="childLayout=tableLayout;recursiveResize=0;shadow=0;fillColor=#1ba1e2;strokeColor=#006EAF;fontColor=#ffffff;" vertex="1" parent="1">
          <mxGeometry x="400" y="560" width="80" height="60" as="geometry" />
        </mxCell>
        <mxCell id="cc8yUeArfXGJb8f5VESH-152" value="" style="shape=tableRow;horizontal=0;startSize=0;swimlaneHead=0;swimlaneBody=0;top=0;left=0;bottom=0;right=0;dropTarget=0;collapsible=0;recursiveResize=0;expand=0;fontStyle=0;fillColor=#1ba1e2;strokeColor=#006EAF;fontColor=#ffffff;" vertex="1" parent="cc8yUeArfXGJb8f5VESH-151">
          <mxGeometry width="80" height="20" as="geometry" />
        </mxCell>
        <mxCell id="cc8yUeArfXGJb8f5VESH-153" value="" style="connectable=0;recursiveResize=0;strokeColor=#006EAF;fillColor=#1ba1e2;align=center;whiteSpace=wrap;html=1;fontColor=#ffffff;" vertex="1" parent="cc8yUeArfXGJb8f5VESH-152">
          <mxGeometry width="26" height="20" as="geometry">
            <mxRectangle width="26" height="20" as="alternateBounds" />
          </mxGeometry>
        </mxCell>
        <mxCell id="cc8yUeArfXGJb8f5VESH-154" value="" style="connectable=0;recursiveResize=0;strokeColor=#006EAF;fillColor=#1ba1e2;align=center;whiteSpace=wrap;html=1;fontColor=#ffffff;" vertex="1" parent="cc8yUeArfXGJb8f5VESH-152">
          <mxGeometry x="26" width="28" height="20" as="geometry">
            <mxRectangle width="28" height="20" as="alternateBounds" />
          </mxGeometry>
        </mxCell>
        <mxCell id="cc8yUeArfXGJb8f5VESH-155" value="" style="connectable=0;recursiveResize=0;strokeColor=#006EAF;fillColor=#1ba1e2;align=center;whiteSpace=wrap;html=1;fontColor=#ffffff;" vertex="1" parent="cc8yUeArfXGJb8f5VESH-152">
          <mxGeometry x="54" width="26" height="20" as="geometry">
            <mxRectangle width="26" height="20" as="alternateBounds" />
          </mxGeometry>
        </mxCell>
        <mxCell id="cc8yUeArfXGJb8f5VESH-156" style="shape=tableRow;horizontal=0;startSize=0;swimlaneHead=0;swimlaneBody=0;top=0;left=0;bottom=0;right=0;dropTarget=0;collapsible=0;recursiveResize=0;expand=0;fontStyle=0;fillColor=#1ba1e2;strokeColor=#006EAF;fontColor=#ffffff;" vertex="1" parent="cc8yUeArfXGJb8f5VESH-151">
          <mxGeometry y="20" width="80" height="20" as="geometry" />
        </mxCell>
        <mxCell id="cc8yUeArfXGJb8f5VESH-157" value="" style="connectable=0;recursiveResize=0;strokeColor=#006EAF;fillColor=#1ba1e2;align=center;whiteSpace=wrap;html=1;fontColor=#ffffff;" vertex="1" parent="cc8yUeArfXGJb8f5VESH-156">
          <mxGeometry width="26" height="20" as="geometry">
            <mxRectangle width="26" height="20" as="alternateBounds" />
          </mxGeometry>
        </mxCell>
        <mxCell id="cc8yUeArfXGJb8f5VESH-158" value="" style="connectable=0;recursiveResize=0;strokeColor=#006EAF;fillColor=#1ba1e2;align=center;whiteSpace=wrap;html=1;fontColor=#ffffff;" vertex="1" parent="cc8yUeArfXGJb8f5VESH-156">
          <mxGeometry x="26" width="28" height="20" as="geometry">
            <mxRectangle width="28" height="20" as="alternateBounds" />
          </mxGeometry>
        </mxCell>
        <mxCell id="cc8yUeArfXGJb8f5VESH-159" value="" style="connectable=0;recursiveResize=0;strokeColor=#006EAF;fillColor=#1ba1e2;align=center;whiteSpace=wrap;html=1;fontColor=#ffffff;" vertex="1" parent="cc8yUeArfXGJb8f5VESH-156">
          <mxGeometry x="54" width="26" height="20" as="geometry">
            <mxRectangle width="26" height="20" as="alternateBounds" />
          </mxGeometry>
        </mxCell>
        <mxCell id="cc8yUeArfXGJb8f5VESH-160" style="shape=tableRow;horizontal=0;startSize=0;swimlaneHead=0;swimlaneBody=0;top=0;left=0;bottom=0;right=0;dropTarget=0;collapsible=0;recursiveResize=0;expand=0;fontStyle=0;fillColor=#1ba1e2;strokeColor=#006EAF;fontColor=#ffffff;" vertex="1" parent="cc8yUeArfXGJb8f5VESH-151">
          <mxGeometry y="40" width="80" height="20" as="geometry" />
        </mxCell>
        <mxCell id="cc8yUeArfXGJb8f5VESH-161" value="" style="connectable=0;recursiveResize=0;strokeColor=#006EAF;fillColor=#1ba1e2;align=center;whiteSpace=wrap;html=1;fontColor=#ffffff;" vertex="1" parent="cc8yUeArfXGJb8f5VESH-160">
          <mxGeometry width="26" height="20" as="geometry">
            <mxRectangle width="26" height="20" as="alternateBounds" />
          </mxGeometry>
        </mxCell>
        <mxCell id="cc8yUeArfXGJb8f5VESH-162" value="" style="connectable=0;recursiveResize=0;strokeColor=#006EAF;fillColor=#1ba1e2;align=center;whiteSpace=wrap;html=1;fontColor=#ffffff;" vertex="1" parent="cc8yUeArfXGJb8f5VESH-160">
          <mxGeometry x="26" width="28" height="20" as="geometry">
            <mxRectangle width="28" height="20" as="alternateBounds" />
          </mxGeometry>
        </mxCell>
        <mxCell id="cc8yUeArfXGJb8f5VESH-163" value="" style="connectable=0;recursiveResize=0;strokeColor=#006EAF;fillColor=#1ba1e2;align=center;whiteSpace=wrap;html=1;fontColor=#ffffff;" vertex="1" parent="cc8yUeArfXGJb8f5VESH-160">
          <mxGeometry x="54" width="26" height="20" as="geometry">
            <mxRectangle width="26" height="20" as="alternateBounds" />
          </mxGeometry>
        </mxCell>
        <mxCell id="cc8yUeArfXGJb8f5VESH-164" style="edgeStyle=orthogonalEdgeStyle;rounded=0;orthogonalLoop=1;jettySize=auto;html=1;" edge="1" parent="1">
          <mxGeometry relative="1" as="geometry">
            <mxPoint x="391" y="590" as="targetPoint" />
            <mxPoint x="361" y="590" as="sourcePoint" />
            <Array as="points">
              <mxPoint x="381" y="590" />
              <mxPoint x="381" y="590" />
            </Array>
          </mxGeometry>
        </mxCell>
        <mxCell id="cc8yUeArfXGJb8f5VESH-165" value="" style="rounded=0;whiteSpace=wrap;html=1;opacity=30;dashed=1;fillColor=#6a00ff;fontColor=#ffffff;strokeColor=#3700CC;fillStyle=dashed;" vertex="1" parent="1">
          <mxGeometry x="380" y="387" width="110" height="263" as="geometry" />
        </mxCell>
        <mxCell id="cc8yUeArfXGJb8f5VESH-166" value="Concatenate" style="text;html=1;strokeColor=none;fillColor=none;align=center;verticalAlign=middle;whiteSpace=wrap;rounded=0;" vertex="1" parent="1">
          <mxGeometry x="414" y="622" width="60" height="30" as="geometry" />
        </mxCell>
        <mxCell id="cc8yUeArfXGJb8f5VESH-167" value="Linear" style="rounded=1;whiteSpace=wrap;html=1;fillColor=#f5f5f5;fontColor=#333333;strokeColor=#666666;" vertex="1" parent="1">
          <mxGeometry x="520" y="500" width="60" height="40" as="geometry" />
        </mxCell>
        <mxCell id="cc8yUeArfXGJb8f5VESH-168" style="edgeStyle=orthogonalEdgeStyle;rounded=0;orthogonalLoop=1;jettySize=auto;html=1;entryX=-0.004;entryY=0.547;entryDx=0;entryDy=0;entryPerimeter=0;" edge="1" parent="1" target="cc8yUeArfXGJb8f5VESH-167">
          <mxGeometry relative="1" as="geometry">
            <mxPoint x="530" y="522" as="targetPoint" />
            <mxPoint x="492" y="522" as="sourcePoint" />
            <Array as="points">
              <mxPoint x="490" y="522" />
            </Array>
          </mxGeometry>
        </mxCell>
        <mxCell id="cc8yUeArfXGJb8f5VESH-172" value="Output" style="rounded=1;whiteSpace=wrap;html=1;fillColor=#f5f5f5;fontColor=#333333;strokeColor=#666666;" vertex="1" parent="1">
          <mxGeometry x="600" y="500" width="60" height="40" as="geometry" />
        </mxCell>
        <mxCell id="cc8yUeArfXGJb8f5VESH-173" style="edgeStyle=orthogonalEdgeStyle;rounded=0;orthogonalLoop=1;jettySize=auto;html=1;" edge="1" parent="1">
          <mxGeometry relative="1" as="geometry">
            <mxPoint x="600" y="523" as="targetPoint" />
            <mxPoint x="582" y="523" as="sourcePoint" />
            <Array as="points">
              <mxPoint x="580" y="523" />
            </Array>
          </mxGeometry>
        </mxCell>
      </root>
    </mxGraphModel>
  </diagram>
</mxfile>
